<svg width="512" height="512" viewBox="0 0 512 512" fill="none" xmlns="http://www.w3.org/2000/svg">
  <!-- Shield background -->
  <rect width="512" height="512" rx="128" fill="url(#gradient)" />
  
  <!-- Heart + Paw combined shape -->
  <path
    d="M256 448l-30.4-27.2C115.2 328 43.2 262.4 43.2 180.8 43.2 115.2 94.4 64 160 64c36.8 0 72 17.6 96 44.8C280 81.6 315.2 64 352 64c65.6 0 116.8 51.2 116.8 116.8 0 80-72 145.6-182.4 219.2L256 448z"
    fill="white"
    opacity="0.9"
  />
  
  <!-- Paw print overlay -->
  <circle cx="256" cy="208" r="40" fill="#fca311" />
  <circle cx="208" cy="256" r="24" fill="#fca311" />
  <circle cx="304" cy="256" r="24" fill="#fca311" />
  <circle cx="256" cy="304" r="24" fill="#fca311" />
  
  <!-- Gradient definition -->
  <defs>
    <linearGradient id="gradient" x1="0%" y1="0%" x2="100%" y2="100%">
      <stop offset="0%" style="stop-color:#1e40af;stop-opacity:1" />
      <stop offset="100%" style="stop-color:#475569;stop-opacity:1" />
    </linearGradient>
  </defs>
</svg>
