<svg width="32" height="32" viewBox="0 0 32 32" fill="none" xmlns="http://www.w3.org/2000/svg">
  <!-- Shield background -->
  <rect width="32" height="32" rx="8" fill="url(#gradient)" />
  
  <!-- Heart + Paw combined shape -->
  <path
    d="M16 28l-1.9-1.7C7.2 20.5 2.7 16.4 2.7 11.3 2.7 7.2 5.9 4 10 4c2.3 0 4.5 1.1 6 2.8C17.5 5.1 19.7 4 22 4c4.1 0 7.3 3.2 7.3 7.3 0 5-4.5 9.1-11.4 13.7L16 28z"
    fill="white"
    opacity="0.9"
  />
  
  <!-- Paw print overlay -->
  <circle cx="16" cy="13" r="2.5" fill="#fca311" />
  <circle cx="13" cy="16" r="1.5" fill="#fca311" />
  <circle cx="19" cy="16" r="1.5" fill="#fca311" />
  <circle cx="16" cy="19" r="1.5" fill="#fca311" />
  
  <!-- Gradient definition -->
  <defs>
    <linearGradient id="gradient" x1="0%" y1="0%" x2="100%" y2="100%">
      <stop offset="0%" style="stop-color:#1e40af;stop-opacity:1" />
      <stop offset="100%" style="stop-color:#475569;stop-opacity:1" />
    </linearGradient>
  </defs>
</svg>
